<svg width="18" height="18" viewBox="0 0 18 18" fill="none" xmlns="http://www.w3.org/2000/svg">
<path d="M12.9682 6.96787C12.8988 6.89834 12.8164 6.84318 12.7256 6.80554C12.6349 6.76791 12.5376 6.74854 12.4394 6.74854C12.3412 6.74854 12.2439 6.76791 12.1532 6.80554C12.0625 6.84318 11.98 6.89834 11.9107 6.96787L9.00066 9.87787L6.09065 6.96787C6.02122 6.89843 5.93879 6.84335 5.84806 6.80577C5.75734 6.76819 5.6601 6.74885 5.56191 6.74885C5.46371 6.74885 5.36647 6.76819 5.27575 6.80577C5.18502 6.84335 5.10259 6.89843 5.03315 6.96787C4.96372 7.0373 4.90864 7.11974 4.87106 7.21046C4.83348 7.30118 4.81414 7.39842 4.81414 7.49662C4.81414 7.59482 4.83348 7.69205 4.87106 7.78278C4.90864 7.8735 4.96372 7.95593 5.03315 8.02537L8.47566 11.4679C8.54504 11.5374 8.62746 11.5926 8.71819 11.6302C8.80892 11.6678 8.90618 11.6872 9.00441 11.6872C9.10263 11.6872 9.19989 11.6678 9.29062 11.6302C9.38135 11.5926 9.46377 11.5374 9.53315 11.4679L12.9757 8.02537C13.2607 7.74037 13.2607 7.26037 12.9682 6.96787Z" fill="#CFCFFF"/>
</svg>
