<svg width="19" height="19" viewBox="0 0 19 19" fill="none" xmlns="http://www.w3.org/2000/svg">
<path d="M4.62575 6.41802C4.32864 6.1214 3.84685 6.1214 3.54957 6.41802L0.339437 9.62527C-0.113146 10.0771 -0.113146 10.8097 0.339437 11.2615L3.5519 14.4686C3.84901 14.7652 4.33079 14.7652 4.62808 14.4686C4.92519 14.172 4.92519 13.691 4.62808 13.3942L1.66985 10.4433L4.62571 7.4924C4.92297 7.19563 4.92297 6.71481 4.62571 6.41802H4.62575Z" fill="#CFCFFF"/>
<path d="M17.6692 9.62551L14.4567 6.41826C14.1596 6.12165 13.6778 6.12165 13.3805 6.41826C13.0834 6.71487 13.0834 7.19585 13.3805 7.49264L16.3388 10.4436L13.3829 13.3945C13.0858 13.6911 13.0858 14.1721 13.3829 14.4689C13.68 14.7655 14.1618 14.7655 14.4591 14.4689L17.6716 11.2618C18.1218 10.8099 18.1218 10.0772 17.6692 9.62551Z" fill="#CFCFFF"/>
<path d="M11.5507 4.30777C11.1634 4.14817 10.7177 4.33019 10.5579 4.71898L6.04615 15.588C5.88629 15.9746 6.0686 16.4195 6.45805 16.5791C6.8453 16.7387 7.29097 16.5567 7.45081 16.1679L11.9602 5.29887C12.1224 4.91227 11.9379 4.46734 11.5506 4.30777H11.5507Z" fill="#CFCFFF"/>
</svg>
