<svg width="10" height="51" viewBox="0 0 10 51" fill="none" xmlns="http://www.w3.org/2000/svg">
<path d="M10 10.75V0.75H0V10.75H10ZM0 50.3824C0.772059 50.4927 1.47059 50.5662 2.16912 50.5662C3.45588 50.5662 4.70588 50.2721 5.95588 49.7206C8.41912 48.5441 10 45.1985 10 40.4559V30.4559H0V40.4559H5.14706C5.18382 40.5662 5.18382 40.6397 5.18382 40.75L5.22059 41.3015C5.25735 41.4118 5.25735 41.4853 5.25735 41.5956V41.7794C5.25735 44.6471 3.52941 46.2279 1.10294 46.2279C0.919117 46.2279 0.772059 46.2279 0.588235 46.1912L0 50.3824Z" fill="#78BEFF"/>
</svg>
