<svg width="18" height="18" viewBox="0 0 18 18" fill="none" xmlns="http://www.w3.org/2000/svg">
<g clip-path="url(#clip0_494_504)">
<path d="M15.5 15.5H2.5C2.36739 15.5 2.24021 15.5527 2.14645 15.6464C2.05268 15.7402 2 15.8674 2 16C2 16.1326 2.05268 16.2598 2.14645 16.3536C2.24021 16.4473 2.36739 16.5 2.5 16.5H15.5C15.6326 16.5 15.7598 16.4473 15.8536 16.3536C15.9473 16.2598 16 16.1326 16 16C16 15.8674 15.9473 15.7402 15.8536 15.6464C15.7598 15.5527 15.6326 15.5 15.5 15.5Z" fill="white"/>
<path d="M9.00016 14.74L14.3052 9.435C14.3871 9.33935 14.4299 9.21631 14.425 9.09047C14.4202 8.96464 14.368 8.84527 14.2789 8.75622C14.1899 8.66717 14.0705 8.61501 13.9447 8.61014C13.8189 8.60528 13.6958 8.64809 13.6002 8.73L9.50016 12.825V2.5C9.50016 2.36739 9.44748 2.24021 9.35372 2.14645C9.25995 2.05268 9.13277 2 9.00016 2C8.86755 2 8.74038 2.05268 8.64661 2.14645C8.55284 2.24021 8.50016 2.36739 8.50016 2.5V12.825L4.40516 8.73C4.36034 8.67766 4.30518 8.63515 4.24315 8.60514C4.18112 8.57513 4.11355 8.55826 4.04469 8.5556C3.97583 8.55294 3.90716 8.56454 3.843 8.58968C3.77884 8.61482 3.72056 8.65295 3.67184 8.70167C3.62311 8.7504 3.58498 8.80868 3.55984 8.87284C3.53471 8.937 3.5231 9.00567 3.52576 9.07453C3.52842 9.14339 3.54529 9.21095 3.5753 9.27299C3.60531 9.33502 3.64782 9.39018 3.70016 9.435L9.00016 14.74Z" fill="white"/>
</g>
<defs>
<clipPath id="clip0_494_504">
<rect width="18" height="18" fill="white"/>
</clipPath>
</defs>
</svg>
