<svg width="32" height="32" viewBox="0 0 32 32" fill="none" xmlns="http://www.w3.org/2000/svg">
<path d="M27.5557 27.3055H4.44455C4.1425 27.3055 3.85282 27.4255 3.63924 27.6391C3.42565 27.8527 3.30566 28.1424 3.30566 28.4444C3.30566 28.7465 3.42565 29.0362 3.63924 29.2497C3.85282 29.4633 4.1425 29.5833 4.44455 29.5833H27.5557C27.8577 29.5833 28.1474 29.4633 28.361 29.2497C28.5746 29.0362 28.6946 28.7465 28.6946 28.4444C28.6946 28.1424 28.5746 27.8527 28.361 27.6391C28.1474 27.4255 27.8577 27.3055 27.5557 27.3055Z" fill="#FD91FF" stroke="#FD91FF" stroke-width="0.5" stroke-linejoin="round"/>
<path d="M15.8227 26.3811C15.8695 26.428 15.9331 26.4544 15.9995 26.4544C16.0658 26.4544 16.1294 26.4281 16.1763 26.3812L25.6074 16.9501C25.612 16.9455 25.6163 16.9408 25.6205 16.9359C25.8071 16.7181 25.9046 16.4378 25.8935 16.1512C25.8825 15.8645 25.7636 15.5926 25.5608 15.3898C25.358 15.187 25.0861 15.0682 24.7994 15.0571C24.5128 15.046 24.2326 15.1435 24.0147 15.3301C24.0098 15.3343 24.0052 15.3386 24.0006 15.3431L17.1384 22.197V4.44443C17.1384 4.14238 17.0184 3.8527 16.8048 3.63912C16.5913 3.42553 16.3016 3.30554 15.9995 3.30554C15.6975 3.30554 15.4078 3.42553 15.1942 3.63912C14.9806 3.8527 14.8606 4.14238 14.8606 4.44443V22.1964L8.01382 15.3496C7.91295 15.2339 7.78971 15.1398 7.65149 15.073C7.51019 15.0046 7.35629 14.9662 7.19945 14.9601C7.0426 14.9541 6.88619 14.9805 6.74005 15.0378C6.5939 15.095 6.46117 15.1819 6.35017 15.2929C6.23918 15.4038 6.15233 15.5366 6.09508 15.6827C6.03782 15.8289 6.01139 15.9853 6.01745 16.1421C6.02351 16.299 6.06192 16.4529 6.13028 16.5942L6.35461 16.4856L6.13028 16.5942C6.19715 16.7324 6.29124 16.8556 6.40689 16.9565L15.8227 26.3811Z" fill="#FD91FF" stroke="#FD91FF" stroke-width="0.5" stroke-linejoin="round"/>
</svg>
