<svg width="18" height="18" viewBox="0 0 18 18" fill="none" xmlns="http://www.w3.org/2000/svg">
<g clip-path="url(#clip0_425_1459)">
<path d="M15.4847 2.35872C15.2147 2.12976 14.7906 2.097 14.3521 2.27304H14.3514C13.8902 2.45808 1.29745 7.85952 0.784809 8.0802C0.691569 8.1126 -0.122751 8.41644 -0.0388707 9.09324C0.0360093 9.70344 0.690489 9.95616 0.770409 9.98532L3.97189 11.0815C4.18429 11.7886 4.96729 14.3971 5.14045 14.9544C5.24845 15.3018 5.42449 15.7583 5.73301 15.8522C6.00373 15.9566 6.27301 15.8612 6.44725 15.7244L8.40457 13.909L11.5643 16.3732L11.6395 16.4182C11.8541 16.5132 12.0596 16.5607 12.2558 16.5607C12.4074 16.5607 12.5528 16.5323 12.6918 16.4754C13.1652 16.281 13.3546 15.8299 13.3744 15.7788L15.7345 3.51108C15.8785 2.85588 15.6784 2.52252 15.4847 2.35872ZM6.79537 11.52L5.71537 14.4L4.63537 10.8L12.9154 4.68L6.79537 11.52Z" fill="white"/>
</g>
<defs>
<clipPath id="clip0_425_1459">
<rect width="18" height="18" fill="white"/>
</clipPath>
</defs>
</svg>
