<svg width="18" height="19" viewBox="0 0 18 19" fill="none" xmlns="http://www.w3.org/2000/svg">
<path d="M9 0.5C4.05006 0.5 0 4.55006 0 9.5C0 14.4499 4.05006 18.5 9 18.5C13.9499 18.5 18 14.5061 18 9.55611C18 4.55006 13.9499 0.5 9 0.5ZM8.43755 4.99979C7.59378 4.94359 6.75002 4.83104 6.01882 4.54973C6.63763 3.08715 7.48139 2.13099 8.43755 1.79349V4.99979ZM8.43755 6.12486V8.93746H5.06249C5.11869 7.75619 5.28744 6.63112 5.62495 5.6186C6.5249 5.89991 7.48123 6.06867 8.43755 6.12486ZM8.43755 10.0624V12.875C7.42503 12.9312 6.46871 13.0999 5.56875 13.3812C5.28744 12.3687 5.11869 11.2436 5.06249 10.0624H8.43755ZM8.43755 14V17.2625C7.48123 16.9812 6.58127 15.9125 5.96245 14.4499C6.75002 14.225 7.59378 14.0562 8.43755 14ZM9.56245 14C10.4062 14.0562 11.25 14.1688 12.0375 14.4501C11.4187 15.9127 10.5188 16.9814 9.56245 17.2627V14ZM9.56245 12.875V10.0624H12.9375C12.8813 11.2436 12.7126 12.4249 12.4312 13.3812C11.5313 13.0999 10.575 12.9312 9.56245 12.875ZM9.56245 8.93746V6.12486C10.5188 6.06867 11.4749 5.89991 12.3751 5.6186C12.6564 6.63112 12.8813 7.75619 12.9375 8.93746H9.56245ZM9.56245 4.99979V1.79349C10.5188 2.0748 11.3625 3.08732 11.9812 4.54973C11.25 4.77484 10.4062 4.94359 9.56245 4.99979ZM11.925 2.18736C12.7126 2.52486 13.5 2.97493 14.1188 3.53738C13.7813 3.76233 13.4438 3.93108 13.0501 4.09983C12.7126 3.36863 12.3751 2.74981 11.925 2.18736ZM4.95002 4.15603C4.55632 3.98727 4.21882 3.76233 3.88131 3.53721C4.55632 2.97476 5.28753 2.52469 6.0751 2.18719C5.62503 2.74981 5.28753 3.36863 4.95002 4.15603ZM4.55632 5.16854C4.21882 6.29361 3.99387 7.53108 3.93751 8.93729H1.12491C1.23746 7.19357 1.96867 5.61844 3.03738 4.32486C3.54381 4.66237 4.05006 4.94368 4.55632 5.16863V5.16854ZM3.93751 10.0624C3.9937 11.4124 4.16245 12.7062 4.49996 13.8311C3.9937 14.0561 3.48744 14.3374 3.03738 14.6749C1.96867 13.4374 1.23729 11.8061 1.12491 10.0625L3.93751 10.0624ZM4.89383 14.9001C5.17514 15.6313 5.56884 16.2501 5.96254 16.8126C5.17497 16.475 4.49996 16.025 3.82495 15.5187C4.21881 15.2376 4.55632 15.0688 4.89383 14.9001ZM13.1062 14.9001C13.4999 15.0688 13.8374 15.2376 14.1749 15.4625C13.5561 16.025 12.8249 16.475 12.0373 16.7564C12.4312 16.2501 12.7687 15.6313 13.1062 14.9001ZM13.4437 13.8314C13.7812 12.7063 14.0061 11.4126 14.0061 10.0626H16.8187C16.7062 11.8063 16.0312 13.4377 14.9063 14.6751C14.5126 14.3375 14.0063 14.0562 13.4437 13.8313V13.8314ZM14.0625 8.93755C14.0063 7.58752 13.7812 6.2937 13.4437 5.16879C13.9499 4.94385 14.4562 4.66254 14.9063 4.32503C15.975 5.56249 16.7063 7.13763 16.8187 8.93746L14.0625 8.93755Z" fill="#CFCFFF"/>
</svg>
